# xmcd CD database file
#
# Track frame offsets:
#	150
#	18163
#	40834
#	63920
#	78532
#	97318
#	119405
#	136956
#	156221
#	180132
#	207332
#	226207
#	251093
#	281083
#	304745
#
# Disc length: 4384 seconds
#
# Revision: 1
# Processed by: cddbd v1.5.1PL2 Copyright (c) Steve Scherf et al.
# Submitted via: CDex 1.51
#
DISCID=ca111e0f
DTITLE=The Prodigy - Their Law Disc 2
DYEAR=2005
DGENRE=Blues
TTITLE0=Razor
TTITLE1=Back 2 Skool
TTITLE2=Voodoo People (Pendulum Mix)
TTITLE3=Under My Wheels
TTITLE4=No Man Army
TTITLE5=Molotov Bitch
TTITLE6=Voodoo Beats
TTITLE7=The Way It is
TTITLE8=We are the Ruffest
TTITLE9=Your Love
TTITLE10=Spitfire (Live)
TTITLE11=Their Law (Live)
TTITLE12=Breathe (Live)
TTITLE13=Serial Thrilla (Live)
TTITLE14=Firestarter (Live)
EXTD=YEAR: 2005
EXTT0=
EXTT1=
EXTT2=
EXTT3=
EXTT4=
EXTT5=
EXTT6=
EXTT7=
EXTT8=
EXTT9=
EXTT10=
EXTT11=
EXTT12=
EXTT13=
EXTT14=
PLAYORDER=
